<?xml version="1.0" encoding="utf-8"?>
<!-- Generator: Adobe Illustrator 23.0.5, SVG Export Plug-In . SVG Version: 6.00 Build 0)  -->
<svg version="1.1" id="Layer_1" xmlns="http://www.w3.org/2000/svg" xmlns:xlink="http://www.w3.org/1999/xlink" x="0px" y="0px"
	 viewBox="0 0 2400 2400" style="enable-background:new 0 0 2400 2400;" xml:space="preserve">
<style type="text/css">
	.st0{fill:#FED702;}
	.st1{fill:#FFFFFF;}
</style>
<g>
	<g>
		<path d="M770.97,2037.58c-97.66-0.69-174.16-77.25-174.16-174.28c0-97.73,76.8-174.28,174.85-174.28
			c98.04,0,174.84,76.55,174.84,174.28s-77.05,174.28-175.4,174.28H770.97z M771.67,1791.79c-18.46,0-35.34,6.79-47.54,19.1
			c-13.12,13.25-20.23,31.95-20.03,52.67c0,40.75,28.81,71.25,67,71.25c38.84,0,68.14-30.5,68.14-70.94
			C839.24,1822.77,810.19,1791.79,771.67,1791.79z"/>
		<path class="st0" d="M771.66,1706.93c88,0,156.93,68.68,156.93,156.37s-69.18,156.37-157.49,156.37
			c-87.73-0.62-156.37-69.31-156.37-156.37C614.73,1775.61,683.66,1706.93,771.66,1706.93 M771.1,1952.72
			c49.06,0,86.05-38.2,86.05-88.86c0-51.3-36.75-89.98-85.48-89.98c-23.27,0-44.68,8.67-60.27,24.41
			c-16.51,16.67-25.46,39.91-25.22,65.44v0.13C686.18,1914.52,722.69,1952.72,771.1,1952.72 M771.66,1671.1
			c-108.09,0-192.76,84.42-192.76,192.19c0,107.01,84.31,191.44,191.94,192.2c108.66,0,193.57-84.42,193.57-192.2
			C964.42,1755.52,879.75,1671.1,771.66,1671.1L771.66,1671.1z M771.1,1916.89c-28.45,0-49.09-22.3-49.09-53.03v-0.17l0-0.31
			c-0.15-15.9,5.12-30.06,14.85-39.89c8.81-8.9,21.17-13.79,34.81-13.79c28.77,0,49.66,22.78,49.66,54.16
			C821.32,1894.59,800.2,1916.89,771.1,1916.89L771.1,1916.89z"/>
	</g>
	<g>
		<path d="M1299.86,2031.96v-198.47c0-15.57-4.76-41.7-36.64-41.7c-24.65,0-40.58,16.37-40.58,41.7v198.47H1116.5v-336.75h103.33
			v2.81c16.36-5.93,34.25-8.99,52.95-8.99c79.68,0,133.22,56.02,133.22,139.4v203.53H1299.86z"/>
		<path class="st0" d="M1272.78,1706.93c70.05,0,115.31,47.69,115.31,121.5v185.62h-70.32v-180.56c0-36.77-20.9-59.61-54.55-59.61
			c-34.43,0-58.49,24.51-58.49,59.61v180.56h-70.32v-300.93h67.51v13.64C1221.76,1713.83,1246.05,1706.93,1272.78,1706.93
			 M1272.78,1671.1c-16.25,0-32,2.1-46.85,6.19h-24h-67.51l0,0c-19.79,0-35.83,16.04-35.83,35.83v0v300.93l0,0
			c0,19.79,16.04,35.83,35.83,35.83l0,0h70.32l0,0c19.79,0,35.83-16.04,35.83-35.83l0,0v-180.56c0-8.88,2.94-23.78,22.66-23.78
			c7,0,18.72,0,18.72,23.78v180.56l0,0c0,19.79,16.04,35.83,35.83,35.83l0,0h70.32l0,0c19.79,0,35.83-16.04,35.83-35.83l0,0v-185.62
			C1423.91,1734.33,1363.18,1671.1,1272.78,1671.1L1272.78,1671.1z"/>
	</g>
	<g>
		<path d="M1748.6,2038.14c-99,0-176.54-76.55-176.54-174.28c0-98.04,75.32-174.84,171.47-174.84c89.1,0,156.29,66.7,156.29,155.15
			c0,19.26-3.16,35.03-4.12,39.41l-5.46,24.62h-34.29l44.64,51.58l-19.45,20.66C1845.59,2018.19,1799.75,2038.14,1748.6,2038.14z
			 M1692.47,1908.21c12.06,17.33,31.99,27.16,56.68,27.16c22.66,0,42.01-8.63,60.83-27.16H1692.47z M1781.69,1807.13
			c-10.01-11.42-25.38-15.9-39.29-15.9c-16.24,0-30.58,5.68-41.41,15.9H1781.69z"/>
		<path class="st0" d="M1743.53,1706.93c78.89,0,138.37,59,138.37,137.25c0,17.95-3.08,32.76-3.7,35.54l-2.34,10.59H1665.1
			c9.86,38.73,41.5,62.98,84.06,62.98c27.65,0,51.94-10.85,74.26-33.16l10.26-10.27l42.79,49.44l-8.36,8.88
			c-32.09,34.06-73.4,52.06-119.51,52.06c-88.95,0-158.62-68.68-158.62-156.37C1589.97,1775.86,1657.42,1706.93,1743.53,1706.93
			 M1668.46,1825.04h140.72c-6.51-35.61-36.85-51.73-66.77-51.73C1708.05,1773.32,1680.42,1793.14,1668.46,1825.04 M1743.53,1671.1
			c-106.19,0-189.38,84.67-189.38,192.76c0,107.77,85.41,192.19,194.45,192.19c56.22,0,106.56-21.89,145.58-63.32l8.36-8.88
			l9.74-10.34c7.07-7.5,7.31-19.13,0.57-26.93l-9.3-10.74l-8.41-9.72h9.49l6.21-28.09l2.34-10.59c1.06-4.75,4.55-22.05,4.55-43.28
			C1917.73,1745.51,1842.84,1671.1,1743.53,1671.1L1743.53,1671.1z"/>
	</g>
	<g>
		<path d="M2109.11,2139.38c-15.44,0-34.17-2.48-50.11-6.64l-23.49-6.14v-96.59l35.47,4.6c11.71,1.53,21.15,2.55,29.14,2.55
			c13.8,0,22.91-1.68,33.06-24.99l9.17-20.82l-127.03-296.15h115.33l69.57,167.66l69.57-167.66h114.92l-153.96,356.05
			C2204.84,2110.58,2165.06,2139.38,2109.11,2139.38z"/>
		<path class="st0" d="M2378.52,1677.29h-96.73c-7.24,0-14.19,2.22-19.92,6.02c-5.8,3.87-10.39,9.39-13.18,16.05l-48.44,116.79
			l-48.44-116.79c-2.79-6.66-7.45-12.18-13.26-16.05c-5.73-3.8-12.61-6.02-19.85-6.02h-76.24c-20.64,0-35.83,16.91-35.83,35.75
			c0,4.66,0.93,9.46,2.94,14.19l113.21,264.03l-5.95,13.61c-6.3,14.4-8.1,14.4-16.77,14.4c-7.38,0-17.2-1.15-26.8-2.44l-15.26-1.93
			c-1.58-0.22-3.15-0.29-4.66-0.29c-19.49,0-35.75,15.76-35.75,35.75v62.41c0,8.1,2.72,15.76,7.45,21.85
			c4.73,6.16,11.39,10.75,19.27,12.83l10.1,2.58c17.63,4.66,37.54,7.24,54.67,7.24c62.98,0,109.41-33.25,138-98.81l143.23-331.17
			l4.3-9.89c0.5-1.15,1-2.22,1.36-3.3C2407.46,1686.61,2391.99,1679.08,2378.52,1677.29z M2109.11,2121.45
			c-13.97,0-31.02-2.22-45.57-6.02l-10.1-2.65v-62.41l15.26,2.01c12.4,1.65,22.57,2.72,31.38,2.72c20.99,0,36.54-6.02,49.51-35.75
			l12.25-27.87l-119.37-278.36h76.24l81.54,196.47l81.54-196.47h75.66l-143.16,331.03
			C2191.29,2096.88,2157.83,2121.45,2109.11,2121.45z"/>
	</g>
	<polygon points="223.9,1814.93 76.11,1609.62 39.93,1609.62 39.93,2014.04 110.82,2014.04 110.82,1774.5 209.72,1908.86 
		224.01,1908.86 224.01,1814.78 	"/>
	<path class="st0" d="M200.66,1926.78l-71.93-97.72v202.9H22.02v-440.25h63.26l138.67,192.63l0.05-0.07v-30.52l-118.83-165.06
		c-6.73-9.35-17.55-14.89-29.08-14.89H39.93c-19.79,0-35.83,16.04-35.83,35.83v404.42v0c0,19.79,16.04,35.83,35.83,35.83h0h70.89h0
		c19.79,0,35.83-16.04,35.83-35.83v0V1883.6l34.23,46.49l0,0c6.75,9.17,17.46,14.59,28.85,14.59h0h14.29v-17.91H200.66z"/>
	<polygon class="st0" points="85.29,1591.71 22.02,1591.71 22.02,2031.96 128.73,2031.96 128.73,1829.05 200.66,1926.78 
		224.01,1926.78 224.01,1908.86 209.72,1908.86 110.82,1774.5 110.82,2014.04 39.93,2014.04 39.93,1609.62 76.11,1609.62 
		223.9,1814.93 224.01,1814.78 224.01,1784.27 223.96,1784.34 	"/>
	<polygon points="224.11,1814.93 371.91,1609.62 408.08,1609.62 408.08,2014.04 337.2,2014.04 337.2,1774.5 238.3,1908.86 
		224.01,1908.86 224.01,1814.78 	"/>
	<path class="st0" d="M247.35,1926.78l71.93-97.72v202.9h106.71v-440.25h-63.26l-138.67,192.63l-0.05-0.07v-30.52l118.83-165.06
		c6.73-9.35,17.55-14.89,29.07-14.89h36.18c19.79,0,35.83,16.04,35.83,35.83v404.42v0c0,19.79-16.04,35.83-35.83,35.83h0H337.2h0
		c-19.79,0-35.83-16.04-35.83-35.83v0V1883.6l-34.23,46.49l0,0c-6.75,9.17-17.46,14.59-28.85,14.59h0h-14.29v-17.91H247.35z"/>
	<polygon class="st0" points="362.73,1591.71 425.99,1591.71 425.99,2031.96 319.29,2031.96 319.29,1829.05 247.35,1926.78 
		224.01,1926.78 224.01,1908.86 238.3,1908.86 337.2,1774.5 337.2,2014.04 408.08,2014.04 408.08,1609.62 371.91,1609.62 
		224.11,1814.93 224.01,1814.78 224.01,1784.27 224.06,1784.34 	"/>
</g>
<g>
	<g>
		<path d="M26.35,1448.9V810.66h238.87c58.59,0,111.59,18.91,149.23,53.24c38.21,34.85,59.25,84.18,59.25,138.88
			c0,29.15-6.12,57.16-17.82,82.12c44.25,37.26,69.24,92.3,69.24,153.96c0,59.74-22.62,113.61-63.69,151.68
			c-40.6,37.64-97.84,58.37-161.16,58.37H26.35z M294.05,1270.34c41.27,0,44.73-17.06,44.73-33.04c0-10.73,0-33.04-44.73-33.04
			h-82.9v66.08H294.05z M258.99,1024.91c28.36,0,28.36-7.65,28.36-18.24c0-3.77,0-8.46-1.88-10.97c-2.35-3.14-10.54-6.49-26.48-6.49
			h-47.85v35.7H258.99z"/>
		<path class="st0" d="M265.22,832.9c109.66,0,186.24,69.86,186.24,169.88c0,32.71-8.37,62.77-24.19,88.32
			c47.69,32.36,75.61,85.22,75.61,147.75c0,110.57-83.31,187.8-202.6,187.8H48.6V832.9H265.22 M188.9,1047.16h70.09
			c44.86,0,50.61-21.64,50.61-40.48c0-11.88,0-39.7-50.61-39.7H188.9V1047.16 M188.9,1292.58h105.15c44.44,0,66.97-18.6,66.97-55.29
			c0-45.7-36.42-55.29-66.97-55.29H188.9V1292.58 M265.22,788.41H48.6h0c-24.57,0-44.49,19.92-44.49,44.49l0,0v593.75l0,0
			c0,24.57,19.92,44.49,44.49,44.49h0h251.68c68.95,0,131.55-22.83,176.28-64.3c45.66-42.33,70.81-101.99,70.81-167.99
			c0-62.48-23.27-118.93-64.91-159.84c8.88-23.82,13.49-49.62,13.49-76.23c0-61.04-23.62-116.2-66.51-155.32
			C387.7,809.38,329.38,788.41,265.22,788.41L265.22,788.41z M233.4,1226.5h60.66c13.71,0,20.14,2.76,21.57,3.88
			c0.21,0.5,0.91,2.5,0.91,6.92c0,4.06-0.56,6.38-0.89,7.25c-1.15,0.71-6.71,3.55-21.59,3.55H233.4V1226.5L233.4,1226.5z"/>
	</g>
	<path class="st0" d="M225.1,1214.55l2.29,45.76l89.15,4.96l24.5-17.17l-14.49-28.59c0,0,13.73-1.14-8.01-1.53"/>
</g>
<path d="M924.91,802.09H792.55l-48.17,29.22L695,858.43l-99.59,80.75l-55.43,143.89l16.39,131.48L610.4,1349l115.36,81.96
	l74.88,47.16l201.98-31.17l82.57-41.69l94.31-91.88l34.41-94.72l7.44-59.91l-7.03-94.71l1.62-25.5l57.88-40.88l22.67-46.14
	l-28.31-65.94l-6.5-45.55l20.85-54.32l-4.86-50.22l-28.84-47.43l-35.21-19.35l-37.04-29.07l-39.01-6.9l-34.76-2.73l6.66-17.25
	l-2-52.21l-17.81-45.74l-28.13-21.25l-40.07-27.63l-21.86,29.45l-27.32,26.71l-23.07-16.09l-21.86,43.71l-12.75,65.88l1.52,42.8
	l34,27.02l21.86,27.02l20.95,2.43c0,0,35.21-3.95,36.73-4.25c1.52-0.3,43.11-10.93,43.11-10.93l96.62,18.43l31.05,42.38v41.62
	l-41.56-16.39l-24.29-17.94l-40.48,34.33l-36.43,26.79l-34.3-7.69L924.91,802.09z"/>
<g>
	<path class="st0" d="M1229.82,1051.75l59.93-48.58l-21.66-26.72l-62.82,50.93c-15.42,12.5-37.36,13.03-53.36,1.28
		c-58.24-42.79-91.17-96.41-108.54-133.85c-8.45-18.21-3.48-39.74,12.08-52.35l19.44-15.76c0,0,0,0,0,0
		c0.01,0.17,0.02,0.34,0.04,0.5c0.59,7.1,1.9,13.94,3.59,20.57c1.7,6.62,3.77,13.06,6.21,19.28c2.49,6.2,5.27,12.2,8.26,18.06
		c12.21,23.31,28.39,43.8,47.05,61.25c9.37,8.7,19.42,16.61,30.1,23.43c10.68,6.8,21.98,12.63,33.82,16.59
		c-10.06-7.38-19.26-15.47-27.82-24.06c-4.26-4.32-8.37-8.75-12.29-13.33c-3.92-4.56-7.73-9.19-11.3-14
		c-14.38-19.11-26.52-39.69-35-61.17c-4.19-10.74-7.5-21.69-9.41-32.52c-1.83-10.77-2.44-21.6-0.51-30.82
		c0.95-4.6,2.4-8.71,4.36-12.05c0.96-1.7,2.06-3.18,3.28-4.47c0,0,0,0,0,0l2.92-2.37l-0.12-0.15c0,0,0,0,0,0l0.12,0.15
		c3.17-2.57,7.16-4.26,11.78-5.09c0.88-0.14,1.77-0.27,2.68-0.37c0.4-0.04,0.78-0.07,1.17-0.08c0.3-0.03,0.58-0.05,0.88-0.06
		c0.39-0.02,0.81-0.03,1.21-0.04c0.56-0.01,1.12-0.02,1.69,0.01c1.71,0.03,3.46,0.16,5.24,0.39c5.96,0.71,12.18,2.31,18.4,4.58
		c0.47,0.17,0.92,0.33,1.37,0.52c0.61,0.23,1.24,0.48,1.87,0.73c10.44,4.27,21.67,10.72,33.07,19.34l0.01,0.01l0.2,1.54
		l-14.83,28.42l-0.39,0.53c-21.6-19.72-41.03-29.49-49.06-22.98c-11.36,9.21,4.47,47.54,35.35,85.64
		c30.89,38.1,65.12,61.51,76.48,52.3c7.94-6.44,2.59-27.11-11.89-51.98l1.06-1.18c0,0,10.64-9.07,23.03-23.45
		c24.79,43.4,26.97,82.77,10.54,96.09l21.66,26.72c20.21-16.38,27.57-44.77,20.74-79.91c-4.6-23.7-15.42-48.93-31.1-72.99
		c12.97-22.12,21.37-48.31,11.82-72.95c-0.66-1.71-0.75-3.59-0.25-5.36c2.77-9.88,9.67-45.16-21.77-75.88
		c-0.77-0.76-1.42-1.65-1.88-2.64c-3.39-7.5-21.01-42.44-59.14-52.3c-1.32-0.34-2.57-0.94-3.6-1.84
		c-6.63-5.78-35.73-28.22-84.47-25.26c0,0,21.78-63.56-22.39-116.04c-6.62-7.86-14.81-14.33-24.24-18.43
		c-5.86-2.55-12.46-4.35-17.81-3.04c0,0,2.08-18.08-13.14-26.75c-16.13-9.17-36.96-1.05-42.81,16.55c-0.86,2.57-1.51,5.46-1.91,8.68
		l-19.23,23.53c-15.44-2.11-30.63,2.41-42.17,11.77c-6.49,5.26-11.81,12.04-15.4,20.02c-14.58,32.44-29.71,80.95-16,123.61
		c23.1,71.95,93.07,76.35,93.07,76.35s28.09,1.56,48.13-12.07c1.06-0.72,2.33-1.06,3.6-0.88c8.16,1.13,40.44,4.85,66.19-2.14
		c1.06-0.29,2.17-0.25,3.19,0.16c6.02,2.4,28.11,10.97,41.55,13.48c1.24,0.24,2.34,0.92,3.1,1.95c1.86,2.56,6.21,7.79,13.52,12.81
		c2.05,1.4,3.84,3.16,5.29,5.17c1.91,2.65,4.8,6.2,7.23,7.39l1.51,10.84c-4.12-2.17-8.24-4.14-12.36-5.88
		c-32.97-13.95-62.26-12.61-82.47,3.77l0.18,0.22c0,0,0,0,0,0l-0.18-0.22l-59.92,48.58c-123.93-59.1-271.22-41.98-378.41,44.92
		c-74.03,60.02-120.26,145.27-130.17,240.06c-9.91,94.79,17.69,187.76,77.7,261.79c60.02,74.04,145.28,120.27,240.07,130.18
		c94.79,9.91,187.76-17.68,261.79-77.7C1214.79,1325.79,1262.01,1185.23,1229.82,1051.75z M1207.39,915.4
		c-2.62,2.64-6.94,2.56-9.5-0.14l-15.55-16.45c-1.16-1.21-0.24-3.17,1.43-3.11c19.86,0.83,33.99-4.17,39.56-6.6
		c0.52-0.23,0.97-0.44,1.35-0.61c0.54-0.25,1.12,0.24,0.97,0.83c-0.18,0.71-0.42,1.44-0.7,2.18
		C1221.75,900.08,1212.98,909.78,1207.39,915.4z M1268.17,794.98c-0.86,5.34-3.05,16.91-7.43,30.02l0.01,0.01
		c-0.34,0.98-0.68,1.98-1.04,3c-2.25,6.36-5.01,12.97-8.39,19.36c-1.65,3.12-3.5,6.1-5.56,8.92c-0.66,0.93-1.36,1.84-2.07,2.73
		c-7.23,9.08-16.5,16.3-26.98,20.9c-7.27,3.2-15.12,5.14-23.3,5.57c-4.09,0.22-8.33,0.06-12.53-0.64c-5.21-0.88-7.98-6.74-5.3-11.3
		c2.12-3.59,6.89-7.75,16.84-11.8c2.39-0.96,4.67-1.95,6.84-2.94c15.25-6.91,25.39-14.08,30-17.7c0.73-0.56,1.32-1.04,1.77-1.42
		c0.75-0.61,1.13-0.95,1.13-0.95s9.78-8.05,19.87-20.41c0.47-0.58,0.95-1.16,1.42-1.77c5.07-6.39,10.11-13.83,13.9-21.83
		C1267.55,794.27,1268.25,794.47,1268.17,794.98z M1254.26,718.85c7.21,11.01,24.85,46.18-7.62,90.46
		c-0.37,0.51-0.74,1.03-1.13,1.53c-1.04,1.38-2.14,2.76-3.27,4.16c0,0-8.06,8.67-18.69,17.23c-0.47,0.38-0.96,0.76-1.45,1.14
		c-7.08,5.58-15.16,10.93-22.69,13.61c-1.38,0.48-2.67-0.92-2.05-2.25l11.2-24.29l0.48-1.05l1.59-3.45
		c1.79-3.88,4.27-7.41,7.24-10.47c2.51-2.58,5.94-6.61,9.69-12.39c0.21-0.33,0.43-0.67,0.64-1.02c8.63-13.64,18.7-36.53,22.97-72.48
		C1251.36,718.02,1253.39,717.53,1254.26,718.85z M931.49,642.76c0,0-8.8-77.57,30.42-118.48c0,0-3.27,16.41,12.25,33.67
		c0,0,3.45-16.96,26.47-41.49c22.66-24.15,24.77-40.27,24.83-40.76c0.24,0.67,7.75,22.43,13.47,32.28c1.58,2.72,2.83,5.63,3.55,8.69
		c1.86,7.82,4.52,22.28,1.92,33.19c0,0,21.43-13.89,16.07-45.47c0,0,67.55,57.38,18.94,124.72l-8.45,0.3
		c-5.61,0.21-10.1-4.6-9.52-10.19c0.24-2.3-0.31-4.62-1.56-6.58c-2.42-3.79-6.27-11.21-6.89-20.61c0,0-6.77-3.61-11.84,9.6
		c0,0,1.87-18.47-20.86-31.92c-22.74-13.44-7.32-28.69-7.32-28.69s-38.53,26.24-12.7,96.69l-20.49-8.06
		c-2.54-0.99-4.85,1.86-3.35,4.13l10.63,16.14c0.7,1.06,1.06,2.29,1.1,3.56c0.22,6.67,3.67,30.04,40.34,45.13
		C1028.49,698.62,972.69,720.18,931.49,642.76z M1104.61,687.81l-44,2.31c-4.12,0.22-8.25-0.26-12.19-1.51
		c-8.89-2.82-23.01-9.63-24.89-24.79c-1.14-9.17,3.78-17.99,11.84-22.49c9.39-5.26,23.73-8.81,36.06,6.97
		c1.22,1.58,2.69,2.94,4.39,3.99c6.34,3.89,22.67,14.62,32.58,27.37C1110.91,682.88,1108.68,687.59,1104.61,687.81z M1144.84,696.4
		c-10.46-2.43-19.69-8.58-25.84-17.39c-6.19-8.86-16.69-21.33-33.48-34.48c-1.75-1.38-0.87-4.2,1.35-4.3l12-0.55
		c16.5-0.77,32.46,6.06,43.25,18.57c11.29,13.09,24.12,30.3,27.24,43.87L1144.84,696.4z M1203.48,731.13
		c-2.46-2.82-6.4-6.67-12.62-11.39c-3.11-2.35-5.4-5.61-6.67-9.29c-3.63-10.59-14.15-34.88-41.08-64.02
		c-0.98-1.05,0.02-2.73,1.41-2.37l21.99,5.82c13.18,3.48,23.97,12.98,28.99,25.66c6.24,15.78,13.37,37.66,12.71,53.97
		C1208.11,731.95,1205.08,732.97,1203.48,731.13z M1201.66,665.56l26.08,19.45c9.28,6.93,14.42,18.12,13.56,29.65
		c-1.35,17.85-6.01,45.37-20.97,71.04c-0.38-0.29-0.78-0.59-1.16-0.88C1220.68,770.07,1224.84,711.48,1201.66,665.56z
		 M632.46,1338.55c-111.95-138.1-90.69-341.52,47.41-453.48c94.48-76.59,223.43-93.2,333.65-44.41
		c-10.75,20.92-11.76,46.17-1.35,68.61c10.82,23.31,27.14,52.34,50.94,81.7c18.17,22.41,40.69,45.01,68.44,65.4
		c19.67,14.45,44.37,18.52,66.85,12.37c24.93,117.92-17.98,240.64-112.45,317.23C947.86,1497.92,744.42,1476.65,632.46,1338.55z"/>
	<path class="st1" d="M606.88,1151.05l2.61-17.22c1.05-5.69,2.3-11.32,3.43-16.93c5.11-22.37,12.37-43.94,21.72-64.39
		c18.6-40.94,45.44-77.27,78.23-107.19c16.37-15.02,34.36-28.25,53.48-39.64l7.27-4.1l3.63-2.08c1.21-0.7,2.41-1.4,3.67-1.99
		l7.47-3.76c2.5-1.24,4.93-2.64,7.52-3.7c10.17-4.6,20.52-8.95,31.16-12.58c21.24-7.39,43.4-12.62,66.15-15.7l4.27-0.62l2.14-0.3
		l2.15-0.19c2.86-0.26,5.73-0.49,8.62-0.79l4.33-0.43c1.44-0.12,2.89-0.14,4.34-0.21c2.89-0.11,5.8-0.28,8.72-0.44
		c1.46-0.05,2.93-0.22,4.38-0.18l4.38-0.01l8.82-0.08c2.96-0.08,5.88,0.18,8.85,0.22c2.96,0.09,5.94,0.15,8.94,0.19
		c-2.79-1.02-5.61-2.01-8.44-2.98l-4.26-1.43c-1.42-0.47-2.85-0.97-4.3-1.33l-8.71-2.27c-2.91-0.77-5.85-1.51-8.81-2.01
		c-2.96-0.56-5.93-1.14-8.91-1.65c-1.49-0.25-2.98-0.56-4.48-0.77l-4.5-0.55c-6.01-0.72-12.07-1.45-18.15-1.65
		c-24.32-1.33-49.02,0.83-73.12,6.2l-4.53,0.98l-4.47,1.21l-8.95,2.45c-3.02,0.74-5.92,1.81-8.84,2.82l-8.78,3.05
		c-2.96,0.95-5.78,2.25-8.66,3.39l-8.6,3.58c-5.67,2.52-11.19,5.38-16.78,8.12c-22.02,11.57-42.62,25.92-60.99,42.74
		c-18.42,16.76-34.77,35.85-48.37,56.69l-5.09,7.82c-1.61,2.66-3.06,5.41-4.6,8.12c-1.51,2.72-3.04,5.42-4.52,8.15
		c-0.37,0.68-0.76,1.35-1.1,2.05l-0.99,2.11l-1.98,4.22c-2.58,5.64-5.42,11.15-7.51,17l-3.3,8.68c-0.54,1.45-1.12,2.88-1.62,4.34
		l-1.38,4.43c-7.61,23.5-12.06,47.91-12.91,72.28l-0.05,9.14l-0.02,4.55c0,1.52-0.05,3.02,0.1,4.55c0.46,6.07,0.75,12.1,1.4,18.09
		c0.86,5.99,1.76,11.94,2.78,17.84c1.38,5.87,2.75,11.69,4.31,17.43c0.49-5.99,0.78-11.9,1.09-17.76
		C605.68,1162.66,606.36,1156.83,606.88,1151.05z"/>
</g>
<path d="M1819.6,802.09v646.79h-184.76v-242.25l-71.02,96.57h-84.54l-71.82-97.54v243.22h-184.81V1244.5
	c19.68-61.26,22.82-127.83,7.13-192.74l15.12-12.26l44.83-36.34c20.19-16.37,27.55-44.78,20.76-79.91
	c-4.62-23.67-15.46-48.94-31.14-73.01c4.79-8.16,9.01-16.88,11.86-25.9c2.34-7.3,3.82-14.77,4.05-22.25h43.01l182.65,253.72
	l184.02-253.72H1819.6z"/>
<path class="st0" d="M1797.87,779.84c-0.34,0-0.51,0-0.51,0h-81.06c-7.13,0-14.03,1.71-20.25,4.85c-6.16,3.14-11.58,7.76-15.8,13.52
	l-159.26,219.61l-158-219.49c-4.16-5.82-9.64-10.44-15.8-13.58c-6.22-3.19-13.18-4.91-20.31-4.91h-34.74
	c2.45,7.36,3.42,14.77,3.14,22.25c-0.23,7.47-1.71,14.94-4.05,22.25h35.65l194,269.46l195.42-269.46h81.06v602.3h-140.26V1138.8
	l-104.5,142.15h-62.06l-105.3-143.06v288.74h-140.32v-387.14l-15.12,12.26c15.69,64.91,12.55,131.48-7.13,192.74
	c-5.88,18.48-13.35,36.51-22.25,53.85v128.29c0,12.32,5.02,23.44,13.06,31.49c8.04,8.04,19.17,13.01,31.43,13.01h140.32
	c12.26,0,23.39-4.96,31.43-13.01c8.1-8.04,13.06-19.17,13.06-31.49v-153.21l24.98,33.88c4.22,5.7,9.58,10.27,15.74,13.35
	c6.16,3.14,13.01,4.79,20.08,4.79h62.06c7.07,0,13.92-1.65,20.08-4.79c6.16-3.08,11.58-7.64,15.74-13.35l24.19-32.86v152.19
	c0,12.32,4.96,23.44,13.01,31.49c8.04,8.04,19.17,13.01,31.49,13.01h140.26c12.32,0,23.44-4.96,31.49-13.01
	c8.04-8.04,13.01-19.17,13.01-31.49V814.7C1841.85,780.87,1802.66,779.84,1797.87,779.84z"/>
<path d="M1871.96,1448.9V807.13h240.15c58.91,0,112.19,19.01,150.03,53.52c38.41,35.03,59.56,84.62,59.56,139.61
	c0,29.34-6.16,57.53-17.96,82.64c44.53,37.45,69.68,92.82,69.68,154.83c0,60.06-22.74,114.21-64.03,152.48
	c-40.82,37.84-98.36,58.68-162.03,58.68H1871.96z M2141.12,1269.54c41.64,0,45.12-17.22,45.12-33.37c0-10.83,0-33.37-45.12-33.37
	h-83.53v66.74H2141.12z M2105.85,1022.66c28.66,0,28.66-8.16,28.66-18.48c0-3.81,0-8.55-1.92-11.11
	c-2.39-3.18-10.66-6.58-26.74-6.58h-48.26v36.17H2105.85z"/>
<path class="st0" d="M2112.12,829.38c110.31,0,187.35,70.27,187.35,170.89c0,32.9-8.42,63.14-24.33,88.85
	c47.97,32.55,76.06,85.73,76.06,148.63c0,111.23-83.81,188.91-203.81,188.91h-253.18V829.38H2112.12 M2035.34,1044.91h70.51
	c45.12,0,50.91-21.76,50.91-40.72c0-11.95,0-39.94-50.91-39.94h-70.51V1044.91 M2035.34,1291.79h105.77
	c44.7,0,67.37-18.71,67.37-55.61c0-45.97-36.63-55.61-67.37-55.61h-105.77V1291.79 M2112.12,784.89h-217.91l0,0
	c-24.57,0-44.49,19.92-44.49,44.49v0v597.27l0,0c0,24.57,19.92,44.49,44.49,44.49l0,0h253.18c69.29,0,132.2-22.94,177.15-64.61
	c45.88-42.53,71.15-102.47,71.15-168.8c0-62.85-23.42-119.6-65.34-160.72c8.96-23.98,13.61-49.96,13.61-76.75
	c0-61.33-23.73-116.74-66.82-156.05C2235.19,805.96,2176.59,784.89,2112.12,784.89L2112.12,784.89z M2079.83,1225.05h61.28
	c14.08,0,20.55,2.87,21.91,4c0.2,0.44,0.96,2.46,0.96,7.12c0,4.6-0.69,6.8-0.96,7.47c-1.08,0.69-6.63,3.65-21.92,3.65h-61.28
	V1225.05L2079.83,1225.05z"/>
<polyline class="st0" points="2098.81,1202.85 2068.3,1212 2073.39,1256.24 2145.08,1260.82 2171.01,1258.27 2168.47,1225.05 
	2159.83,1209.46 "/>
</svg>
