<?xml version="1.0" standalone="no"?>
<!DOCTYPE svg PUBLIC "-//W3C//DTD SVG 20010904//EN"
 "http://www.w3.org/TR/2001/REC-SVG-20010904/DTD/svg10.dtd">
<svg version="1.0" xmlns="http://www.w3.org/2000/svg"
 width="1024.000000pt" height="1024.000000pt" viewBox="0 0 1024.000000 1024.000000"
 preserveAspectRatio="xMidYMid meet">
<metadata>
Created by potrace 1.14, written by Peter Selinger 2001-2017
</metadata>
<g transform="translate(0.000000,1024.000000) scale(0.100000,-0.100000)"
fill="#000000" stroke="none">
<path d="M6249 9905 c-3 -2 -18 -7 -34 -10 -17 -3 -35 -7 -42 -9 -7 -1 -15 -5
-19 -8 -3 -4 -12 -4 -20 -1 -8 3 -14 0 -14 -6 0 -6 -4 -11 -10 -11 -5 0 -29
-18 -51 -40 -23 -22 -38 -40 -34 -40 5 0 0 -9 -11 -21 -10 -12 -18 -23 -16
-25 1 -2 2 -5 1 -6 0 -2 -2 -11 -4 -20 -5 -29 -29 -78 -38 -78 -5 0 -6 -4 -3
-8 3 -5 -8 -23 -24 -41 -17 -18 -30 -36 -30 -40 0 -5 -18 -24 -40 -44 -22 -19
-40 -38 -40 -41 0 -15 -39 -48 -50 -41 -6 4 -26 9 -43 12 -18 3 -39 8 -47 13
-18 9 -70 5 -122 -8 -21 -6 -38 -8 -38 -5 0 2 -7 -2 -15 -9 -29 -26 -44 -38
-49 -38 -3 0 -21 -16 -40 -35 -20 -19 -32 -35 -29 -35 4 0 -3 -9 -15 -20 -12
-12 -22 -24 -22 -29 0 -4 -8 -16 -17 -27 -10 -11 -24 -29 -30 -40 -24 -38 -96
-189 -96 -201 0 -7 -4 -13 -9 -13 -5 0 -7 -4 -3 -9 3 -5 1 -13 -5 -16 -6 -4
-8 -16 -4 -27 4 -14 2 -18 -5 -14 -10 6 -16 -13 -12 -36 0 -5 -4 -8 -11 -8 -6
0 -9 -3 -5 -6 3 -4 0 -22 -9 -42 -8 -19 -15 -50 -17 -69 -1 -18 -5 -33 -9 -33
-3 0 -5 -11 -3 -25 1 -14 -1 -25 -5 -25 -7 0 -8 -4 -14 -55 -2 -16 -4 -30 -6
-30 -1 0 -3 -11 -4 -25 -1 -14 -6 -41 -10 -60 -25 -104 -25 -299 1 -370 3 -8
7 -28 10 -45 3 -16 9 -37 14 -46 4 -9 6 -19 3 -21 -2 -3 7 -28 21 -56 14 -27
25 -53 25 -57 0 -15 65 -135 73 -135 4 0 5 -4 2 -10 -3 -5 -2 -10 3 -10 5 0
14 -11 20 -24 6 -14 21 -37 34 -53 44 -54 193 -200 211 -206 9 -4 17 -11 17
-17 0 -6 5 -8 10 -5 6 3 10 2 10 -3 0 -5 12 -15 28 -23 15 -8 45 -26 67 -40
44 -28 125 -63 125 -53 0 4 6 1 13 -5 8 -6 17 -8 20 -4 4 3 7 0 7 -7 0 -7 3
-11 6 -8 3 4 20 2 37 -4 18 -5 41 -11 52 -13 11 -1 38 -6 60 -10 58 -11 250
-7 250 5 0 3 39 10 67 13 15 2 31 6 34 10 4 4 14 7 23 7 8 0 36 18 62 40 25
21 49 36 53 33 3 -4 25 -8 49 -10 23 -3 46 -8 51 -13 5 -5 19 -5 32 0 14 6 26
5 29 -1 4 -5 10 -7 14 -4 15 8 113 18 206 19 50 1 96 5 103 9 7 5 12 3 12 -3
0 -8 7 -9 18 -5 9 4 28 9 42 11 14 3 33 7 44 10 10 4 35 -1 55 -9 46 -20 73
-29 88 -33 31 -6 89 -28 101 -37 6 -5 12 -6 12 -2 0 4 7 2 15 -5 9 -7 18 -10
21 -7 4 3 13 -1 21 -9 8 -8 19 -12 24 -9 5 4 9 2 9 -3 0 -5 6 -9 13 -10 53 -6
107 -22 107 -31 0 -10 51 -71 74 -90 38 -31 136 -134 136 -143 0 -5 4 -7 8 -4
8 5 15 -55 14 -108 -1 -11 3 -27 8 -37 7 -13 6 -17 -5 -15 -8 1 -21 8 -27 14
-7 7 -18 12 -25 12 -7 0 -13 5 -13 10 0 6 -3 9 -7 8 -5 0 -26 7 -48 17 -22 10
-46 18 -52 18 -7 0 -13 5 -13 10 0 6 -3 7 -7 4 -3 -4 -12 -2 -20 4 -7 6 -13 9
-13 5 0 -3 -17 1 -37 9 -21 8 -51 16 -68 19 -16 2 -30 5 -30 6 0 4 -53 12 -87
13 -21 1 -38 6 -38 11 0 5 -8 2 -17 -5 -14 -12 -16 -12 -8 0 6 10 4 12 -6 6
-11 -8 -28 -10 -106 -17 -7 -1 -13 -5 -13 -10 0 -5 -4 -7 -9 -4 -11 7 -141
-32 -141 -43 0 -4 -6 -8 -13 -8 -15 0 -155 -98 -179 -126 -10 -11 -18 -16 -18
-11 -1 9 -17 -15 -20 -28 -1 -7 -8 -16 -62 -80 -13 -15 -34 -29 -48 -31 -29
-3 -110 -47 -110 -59 0 -4 -5 -8 -11 -8 -6 0 -16 -6 -23 -12 -7 -7 -30 -26
-51 -43 -21 -16 -44 -36 -51 -42 -18 -18 -31 -16 -55 8 -11 11 -29 21 -40 22
-10 1 -19 4 -19 7 0 10 -175 86 -183 79 -2 -2 -11 4 -21 14 -10 9 -22 15 -27
12 -5 -4 -9 -2 -9 4 0 6 -7 8 -15 5 -8 -4 -15 -1 -15 5 0 6 -3 10 -7 9 -5 -1
-28 5 -53 12 -25 7 -48 13 -52 12 -5 -1 -8 2 -8 7 0 8 -17 13 -88 27 -8 1 -21
6 -30 10 -18 8 -23 9 -62 18 -14 3 -42 10 -62 15 -21 5 -38 7 -38 5 0 -3 -9 0
-19 5 -10 6 -34 13 -52 15 -19 3 -52 10 -74 15 -22 6 -41 8 -44 6 -2 -3 -9 -1
-15 4 -6 5 -33 12 -61 16 -77 10 -137 16 -175 19 -19 2 -35 4 -35 6 0 4 -144
10 -275 10 -166 1 -355 -10 -430 -25 -14 -3 -43 -7 -65 -10 -49 -7 -80 -13
-80 -15 0 -1 -9 -3 -20 -4 -20 -3 -91 -17 -110 -22 -5 -2 -38 -8 -72 -15 -35
-7 -63 -17 -63 -21 0 -5 -5 -6 -10 -3 -6 4 -33 -1 -61 -10 -27 -9 -55 -18 -62
-19 -18 -3 -60 -16 -82 -26 -11 -4 -49 -18 -85 -30 -36 -12 -72 -25 -80 -28
-8 -3 -18 -4 -22 -4 -5 1 -8 -3 -8 -9 0 -5 -4 -8 -9 -4 -5 3 -12 1 -16 -5 -4
-6 -11 -8 -16 -5 -5 4 -9 1 -9 -4 0 -6 -8 -11 -17 -11 -10 0 -27 -7 -37 -15
-10 -8 -23 -12 -27 -9 -5 3 -9 0 -9 -5 0 -6 -7 -11 -15 -11 -8 0 -36 -13 -64
-29 -27 -16 -52 -27 -55 -24 -3 4 -6 0 -6 -7 0 -7 -3 -11 -6 -8 -6 6 -22 -1
-89 -43 -22 -13 -43 -23 -47 -21 -5 1 -8 -2 -8 -7 0 -5 -16 -16 -35 -25 -19
-9 -35 -20 -35 -25 0 -4 -16 -13 -35 -21 -19 -7 -32 -17 -29 -22 3 -4 -1 -8
-9 -8 -7 0 -23 -9 -35 -20 -12 -11 -24 -20 -28 -20 -4 0 -26 -16 -50 -35 -23
-19 -45 -35 -48 -35 -3 0 -14 -8 -25 -17 -10 -10 -33 -29 -51 -43 -53 -41
-108 -87 -147 -122 -61 -56 -243 -238 -238 -238 3 0 -9 -15 -27 -34 -41 -41
-64 -68 -108 -126 -19 -25 -40 -51 -47 -58 -7 -7 -13 -17 -13 -20 0 -4 -11
-20 -25 -35 -14 -15 -23 -27 -19 -27 4 0 -1 -10 -12 -22 -11 -13 -33 -43 -50
-68 -16 -25 -35 -51 -41 -58 -7 -7 -13 -17 -13 -22 0 -8 -59 -109 -70 -120
-15 -15 -88 -168 -83 -174 4 -3 2 -6 -4 -6 -11 0 -36 -53 -36 -76 0 -8 -4 -14
-8 -14 -4 0 -11 -10 -15 -22 -3 -13 -14 -41 -24 -63 -16 -38 -30 -75 -52 -140
-6 -16 -15 -38 -20 -48 -5 -11 -7 -21 -4 -24 3 -3 0 -15 -6 -27 -11 -20 -14
-26 -21 -59 -1 -6 -6 -18 -10 -24 -5 -7 -6 -13 -3 -13 3 0 -1 -18 -9 -40 -8
-22 -12 -40 -10 -40 2 0 -4 -24 -14 -52 -10 -29 -19 -56 -20 -60 0 -5 -1 -9
-2 -10 -1 -4 -10 -69 -11 -85 -1 -7 -4 -13 -8 -13 -3 0 -6 -18 -5 -40 1 -22
-2 -40 -5 -40 -4 0 -7 -6 -7 -12 -1 -16 -13 -109 -21 -168 -7 -57 -7 -672 0
-723 4 -21 12 -45 20 -54 9 -12 9 -15 1 -9 -16 9 -16 -5 -2 -75 6 -30 12 -65
13 -79 2 -14 6 -32 10 -41 4 -9 6 -20 5 -25 -2 -5 3 -29 10 -53 7 -25 14 -54
16 -65 1 -12 5 -28 9 -36 3 -8 7 -25 9 -37 2 -12 6 -26 10 -29 4 -4 7 -18 7
-31 0 -13 4 -23 8 -23 4 0 9 -11 10 -25 1 -14 4 -36 5 -50 1 -14 5 -25 10 -25
4 0 7 -7 7 -15 0 -8 9 -30 19 -49 11 -19 17 -36 15 -39 -3 -3 4 -25 15 -50 12
-25 21 -49 21 -52 0 -3 11 -31 25 -61 14 -30 25 -59 25 -64 0 -5 8 -24 19 -43
40 -72 55 -102 53 -109 -1 -5 3 -8 10 -8 6 0 9 -3 5 -6 -3 -3 12 -35 34 -70
21 -35 39 -69 39 -74 0 -6 4 -10 8 -10 5 0 17 -18 27 -40 10 -22 22 -40 27
-40 4 0 8 -5 8 -10 0 -11 33 -60 63 -94 9 -11 17 -23 17 -27 0 -5 11 -20 25
-35 14 -15 25 -33 25 -40 0 -7 4 -14 8 -16 5 -1 25 -24 44 -49 41 -55 52 -68
95 -114 18 -19 30 -35 27 -35 -2 0 11 -14 31 -31 19 -17 35 -34 35 -39 0 -7
110 -120 117 -120 2 0 21 -18 43 -40 22 -22 44 -40 50 -40 5 0 10 -7 10 -17 0
-9 2 -14 5 -11 3 3 21 -9 39 -26 46 -42 106 -90 120 -95 6 -2 15 -10 19 -17 4
-8 15 -14 22 -14 8 0 15 -4 15 -10 0 -5 6 -10 13 -10 7 0 19 -9 27 -20 8 -11
20 -20 27 -20 7 0 13 -4 13 -8 0 -5 12 -15 28 -23 15 -8 29 -16 32 -19 15 -15
71 -50 80 -50 5 0 10 -4 10 -10 0 -5 4 -10 10 -10 5 0 39 -18 75 -40 36 -22
70 -40 75 -40 6 0 10 -5 10 -11 0 -5 4 -8 9 -5 5 3 14 -1 21 -9 7 -8 16 -12
21 -9 5 3 9 1 9 -5 0 -5 14 -12 30 -16 17 -4 30 -11 30 -16 0 -6 4 -8 9 -5 5
3 14 -1 21 -9 7 -8 16 -12 21 -9 5 3 9 0 9 -7 0 -7 3 -10 6 -6 4 3 23 -2 43
-12 20 -10 55 -24 79 -31 23 -7 42 -16 42 -20 0 -4 17 -11 38 -15 20 -4 42
-11 47 -15 6 -5 13 -9 17 -9 4 -1 13 -3 20 -5 123 -39 155 -48 170 -49 10 -1
18 -6 18 -11 0 -5 3 -7 6 -4 3 3 21 2 41 -4 36 -10 55 -14 107 -24 16 -2 32
-7 36 -9 4 -2 22 -7 41 -10 19 -3 50 -10 69 -15 19 -5 50 -12 69 -15 19 -3 38
-8 43 -11 4 -3 8 1 8 8 0 8 3 9 8 3 4 -6 16 -10 27 -10 11 0 26 -4 33 -9 7 -5
12 -4 12 3 0 7 5 9 13 4 15 -9 26 -11 100 -17 32 -3 62 -8 67 -11 6 -4 10 0
10 7 0 8 3 9 8 3 8 -12 351 -14 370 -2 6 5 12 4 12 -1 0 -10 50 -9 66 1 5 3
24 4 42 3 18 -1 35 1 38 6 3 5 10 6 15 3 5 -4 14 -3 20 1 6 4 37 8 68 10 31 1
66 5 79 8 46 12 68 16 95 18 15 1 27 5 27 8 0 3 8 6 18 6 22 1 68 11 111 24
19 5 37 8 39 5 3 -3 10 -1 16 4 7 6 23 12 36 15 72 14 90 19 90 25 0 4 9 7 19
8 18 2 133 37 212 65 20 8 45 20 55 28 11 10 15 10 10 2 -4 -7 9 -3 28 8 20
11 36 18 36 15 0 -2 21 7 46 20 26 14 53 25 60 25 7 0 14 3 16 8 2 4 39 25 83
47 44 21 83 44 87 50 5 6 8 6 8 0 0 -5 7 -1 15 9 8 11 15 16 15 11 0 -4 8 -1
18 8 9 8 23 17 31 19 14 3 40 21 65 44 6 6 13 11 16 11 5 0 86 53 140 90 14
10 36 28 50 40 14 13 28 23 32 23 4 0 26 17 51 38 24 20 63 53 87 72 24 19 67
58 95 85 29 28 65 62 81 77 60 55 231 246 247 275 6 10 16 22 24 26 7 4 13 14
13 21 0 8 7 16 15 20 8 3 15 12 15 20 0 7 7 16 15 20 8 3 15 12 15 21 0 8 4
15 8 15 4 0 16 14 26 32 19 31 39 57 64 84 7 7 12 15 11 16 -2 6 25 58 31 58
3 0 17 21 30 47 13 27 30 54 37 61 7 8 11 18 8 23 -4 5 -3 9 2 9 4 0 13 10 18
23 6 12 25 49 42 82 32 59 93 192 93 200 0 2 5 16 12 32 6 15 12 30 13 33 1 3
8 19 15 35 7 17 14 37 16 46 2 9 9 29 15 45 13 32 18 50 21 76 1 10 5 18 8 18
4 0 7 6 8 13 0 6 3 23 7 37 4 14 7 31 7 38 1 6 5 12 9 12 4 0 6 9 4 20 -2 11
0 20 5 20 5 0 7 7 4 15 -4 8 -2 15 4 15 6 0 9 8 7 18 -1 9 0 22 4 27 3 6 6 15
7 20 1 6 5 24 9 40 4 17 7 40 8 53 1 12 4 22 7 22 4 0 7 6 7 13 0 6 4 26 8 42
3 17 8 44 9 60 2 17 6 50 10 75 4 25 8 52 9 60 2 8 5 20 8 25 3 6 5 36 4 67 0
32 3 58 8 58 5 0 4 6 -2 14 -7 8 -8 17 -3 20 10 6 10 406 -1 424 -5 7 -3 12 5
12 8 0 9 3 3 8 -5 4 -10 34 -10 67 0 33 -3 65 -7 70 -3 6 -8 35 -11 65 -3 30
-6 55 -7 55 -1 0 -4 14 -6 30 -3 17 -11 55 -19 84 l-14 55 31 25 c18 15 40 34
50 44 10 9 22 17 28 17 5 0 13 6 17 13 4 7 56 51 116 97 59 46 107 87 107 92
0 4 7 8 15 8 8 0 15 5 15 10 0 6 5 10 11 10 7 0 19 8 28 18 9 10 57 50 106 89
50 39 105 88 123 108 42 48 75 95 67 95 -4 0 0 7 9 15 14 14 51 122 48 138 -1
4 2 16 8 26 19 36 32 231 16 231 -6 0 -5 5 2 12 8 8 8 17 1 30 -6 11 -11 32
-11 49 -1 16 -4 29 -9 29 -4 0 -6 8 -5 18 2 9 -1 32 -6 51 -5 18 -11 41 -13
50 -6 32 -38 126 -46 135 -4 5 -5 15 -2 24 4 10 2 13 -5 8 -8 -5 -12 0 -12 13
0 19 -19 71 -30 81 -6 6 -26 50 -29 65 -2 6 -7 16 -13 23 -6 7 -23 35 -37 62
-14 27 -36 60 -48 73 -12 14 -19 28 -15 31 3 4 7 12 8 19 1 7 13 38 28 69 14
31 26 64 26 72 0 9 5 16 11 16 6 0 9 9 6 20 -4 14 0 20 11 20 15 0 15 2 2 10
-11 7 -11 10 -2 10 7 0 11 4 7 9 -3 5 -1 12 5 16 6 4 8 11 5 16 -4 5 -3 15 2
22 4 6 8 17 10 22 1 6 9 37 18 70 9 33 17 70 17 83 0 12 4 22 8 22 4 0 5 11 2
25 -2 15 0 25 7 25 7 0 10 4 7 8 -3 4 -1 24 3 44 5 21 5 40 -1 46 -5 5 -10 24
-12 43 -2 19 -9 46 -15 61 -9 25 -8 57 3 113 3 11 5 20 6 20 7 0 5 87 -1 91
-5 3 -5 12 0 22 4 9 7 26 4 37 -2 11 -6 33 -8 49 -2 15 -7 38 -11 50 -4 11 -8
31 -10 43 -2 21 -19 81 -31 113 -4 8 -7 18 -8 23 -2 4 -4 10 -5 15 -1 4 -2 10
-1 15 0 4 -4 7 -10 7 -6 0 -9 7 -5 15 3 8 0 20 -7 27 -7 7 -18 25 -26 41 -8
15 -18 27 -23 27 -4 0 -8 5 -8 11 0 6 -17 27 -37 48 -42 41 -63 73 -63 96 0
10 -5 13 -12 9 -7 -4 -8 -3 -4 4 4 6 0 24 -8 40 -16 30 -138 169 -144 164 -2
-2 -20 12 -41 30 -21 18 -50 42 -66 53 -15 11 -33 26 -41 33 -8 7 -14 11 -14
7 0 -3 -10 4 -22 16 -38 35 -108 81 -108 69 0 -7 -6 -7 -17 -1 -27 14 -57 24
-66 22 -8 -1 -66 35 -77 49 -21 25 -170 117 -170 105 0 -3 -11 2 -25 11 -17
11 -25 12 -25 4 0 -7 -6 -6 -16 4 -8 9 -24 17 -35 17 -20 2 -37 5 -41 9 -3 2
-31 9 -63 15 -11 2 -38 9 -60 15 -53 15 -116 13 -146 -6 -4 -2 -20 1 -36 8
-15 6 -31 12 -35 13 -5 2 -9 4 -10 5 -2 1 -16 3 -33 4 -34 1 -37 11 -20 71 7
23 11 48 9 58 -1 9 2 20 7 23 6 3 7 14 4 25 -4 11 -2 19 5 19 7 0 9 8 5 19 -3
11 -2 22 2 24 9 6 8 202 -1 252 -3 17 -12 62 -21 100 -9 39 -17 78 -18 88 0 9
-4 17 -7 17 -3 0 -6 10 -7 21 -1 12 -10 38 -19 58 -10 20 -19 41 -20 47 -2 15
-105 169 -136 206 -13 14 -30 36 -38 48 -8 12 -32 40 -52 61 -21 21 -38 41
-38 44 0 12 -92 87 -104 86 -3 -1 -7 -1 -8 0 -6 1 -44 10 -68 15 -14 3 -38 6
-54 7 -20 1 -31 9 -37 25 -5 12 -6 22 -2 22 3 0 0 6 -6 14 -6 8 -11 18 -9 22
12 47 -101 173 -161 180 -29 3 -71 13 -79 18 -5 3 -11 4 -13 1z"/>
</g>
</svg>
